{"glyphs":{":":{"x_min":0,"x_max":206,"ha":206,"o":"m 88 471 q 46 471 22 498 q -2 525 -2 562 q -2 595 18 618 q 39 641 78 641 q 120 641 144 614 q 168 587 168 550 q 168 517 149 496 q 127 471 88 471 z m 88 41 q 46 41 22 68 q -2 95 -2 132 q -2 165 18 188 q 39 211 78 211 q 120 211 144 184 q 168 157 168 120 q 168 87 149 66 q 127 41 88 41 z"},"$":{"x_min":0,"x_max":444,"ha":444,"o":"m 186 222 l 186 128 q 186 99 216 80 q 246 62 285 62 q 311 62 328 70 q 346 77 356 95 q 376 131 376 161 q 376 221 281 273 q 192 318 103 364 q 7 424 7 502 l 7 635 q 7 688 32 726 q 57 764 105 780 q 128 788 140 790 q 153 793 161 793 q 170 793 178 800 q 185 806 190 830 q 194 854 209 854 q 220 854 231 826 q 237 811 246 804 q 263 791 304 783 q 346 775 364 758 q 400 724 410 705 q 420 686 420 663 l 420 577 q 420 546 394 522 q 368 498 339 498 q 285 503 263 530 q 246 551 246 586 l 246 656 q 246 690 218 716 q 189 741 156 741 q 106 741 73 705 q 47 677 47 651 q 47 579 144 526 q 234 482 325 439 q 423 381 423 296 l 423 130 q 423 96 399 70 q 383 53 342 28 q 326 18 296 12 q 265 7 254 0 q 242 -6 238 -31 q 235 -56 222 -56 q 209 -56 204 -30 q 200 -5 189 0 q 178 6 140 10 q 103 14 84 28 q 37 62 23 83 q 9 104 9 130 l 9 218 q 9 252 34 278 q 58 305 90 305 q 101 305 107 303 q 151 290 168 272 q 186 255 186 222 z"},"?":{"x_min":0,"x_max":456,"ha":456,"o":"m 91 -5 q 53 -5 33 18 q 13 40 13 72 q 13 107 36 134 q 60 160 101 160 q 139 160 159 138 q 179 115 179 83 q 179 48 156 22 q 132 -5 91 -5 z m 397 419 q 389 406 380 398 q 370 389 354 380 l 138 254 q 109 238 82 238 q 49 238 27 261 q 17 271 13 283 q 9 295 9 310 q 9 336 22 360 q 35 384 58 397 l 306 545 q 336 563 356 592 q 375 621 375 652 q 375 675 362 695 q 346 719 322 728 q 299 737 264 737 q 225 734 198 716 q 170 697 170 665 l 170 581 q 170 546 145 521 q 120 496 85 496 q 49 496 22 520 q -4 545 -4 580 l -4 658 q -4 730 69 768 q 130 800 221 800 q 298 800 353 766 q 415 728 415 662 l 415 492 q 415 449 397 419 z"},"'":{"x_min":0,"x_max":244,"ha":244,"o":"m 219 690 q 224 667 224 650 q 224 605 191 550 q 176 525 148 502 q 121 480 100 480 q 82 480 75 498 q 67 517 108 538 q 150 559 144 585 q 141 599 135 608 q 129 618 117 618 q 76 618 53 629 q 12 649 5 706 q 1 747 31 776 q 61 805 104 805 q 149 805 179 771 q 206 741 219 690 z"},"a":{"x_min":0,"x_max":469,"ha":469,"o":"m 4 435 q 7 471 75 514 q 148 561 221 561 q 240 561 249 560 q 258 559 274 553 q 343 530 378 500 q 425 460 425 403 l 425 117 q 425 53 357 21 q 302 -5 219 -5 q 137 -5 76 41 q 14 87 14 150 q 14 160 15 165 q 29 266 122 289 q 204 295 286 302 q 372 312 372 382 q 372 409 362 446 q 356 471 338 482 q 319 492 292 492 q 273 492 251 487 q 229 482 165 381 q 137 337 107 337 q 98 337 89 340 q 51 352 30 371 q 4 395 4 427 q 4 432 4 435 z m 254 215 q 254 236 237 246 q 220 255 194 255 q 150 255 119 235 q 92 218 76 196 q 61 175 61 149 q 61 127 74 107 q 86 87 119 65 q 136 54 156 54 q 175 54 194 62 q 212 71 229 87 q 242 98 248 114 q 254 131 254 147 z"},"L":{"x_min":0,"x_max":427,"ha":427,"o":"m 0 730 q 0 762 25 784 q 50 806 84 806 q 117 806 142 784 q 168 763 168 732 l 170 149 q 170 112 196 84 q 221 55 261 55 l 362 55 q 374 55 382 46 q 390 37 390 25 q 390 14 382 7 q 374 0 362 0 l 101 0 q 90 0 67 8 q 44 16 30 31 q 0 63 0 98 z"},"3":{"x_min":0,"x_max":454,"ha":454,"o":"m 209 82 q 254 56 285 56 q 323 56 344 90 q 359 114 365 154 q 366 159 366 168 q 366 217 274 261 q 215 289 192 309 q 191 310 156 330 q 135 342 135 359 q 135 369 139 377 q 146 387 149 393 l 244 563 q 247 571 247 577 q 247 590 237 605 q 231 615 218 619 q 206 623 192 623 l 78 623 q 46 623 24 648 q 2 673 2 706 q 2 742 24 768 q 47 794 82 794 l 356 794 q 366 794 371 794 q 385 794 394 792 q 402 789 406 781 q 411 773 411 766 q 411 758 404 746 q 397 735 391 724 l 275 517 q 266 498 266 497 q 264 491 264 484 q 264 481 266 473 q 273 457 295 444 q 354 409 362 400 q 367 394 386 376 q 410 353 410 331 l 410 135 q 410 74 350 38 q 306 12 222 -5 q 205 -8 190 -8 q 123 -8 65 39 q 7 86 7 134 q 7 163 32 180 q 71 206 104 206 q 120 206 142 198 q 164 191 176 143 q 187 95 209 82 z"},";":{"x_min":0,"x_max":265,"ha":265,"o":"m 90 481 q 48 481 24 508 q 0 535 0 572 q 0 605 20 628 q 41 651 80 651 q 122 651 146 624 q 170 597 170 560 q 170 527 151 506 q 129 481 90 481 z m 210 116 q 215 93 215 76 q 215 31 182 -24 q 167 -49 140 -72 q 112 -94 91 -94 q 73 -94 66 -76 q 58 -57 100 -36 q 141 -15 135 11 q 132 25 126 34 q 120 44 108 44 q 67 44 44 55 q 3 75 -4 132 q -8 173 22 202 q 52 231 95 231 q 140 231 170 197 q 197 167 210 116 z"},"J":{"x_min":0,"x_max":472,"ha":472,"o":"m 324 799 q 366 799 393 763 q 420 727 420 680 l 420 136 q 420 70 354 32 q 296 -1 215 -1 q 130 -1 71 34 q 3 74 3 146 l 3 349 q 3 375 28 392 q 52 410 83 410 q 114 410 133 396 q 152 382 164 366 q 175 350 175 331 q 175 326 172 316 q 170 306 82 228 q 46 196 46 162 q 46 132 71 93 q 80 78 98 70 q 116 63 138 63 q 176 63 209 84 q 242 105 242 136 l 242 680 q 242 729 262 764 q 283 799 324 799 z"},"V":{"x_min":0,"x_max":564,"ha":564,"o":"m 4 663 q 0 675 -2 685 q -4 695 -4 709 q -4 735 6 756 q 17 777 38 786 q 59 795 76 795 q 102 795 122 783 q 143 771 152 747 l 258 481 q 265 463 281 454 q 297 446 319 446 q 343 446 366 456 q 390 466 406 488 q 422 510 422 537 q 422 552 416 567 l 370 669 q 363 684 363 703 q 363 739 388 769 q 413 799 448 799 q 480 799 502 771 q 524 743 524 708 q 524 694 520 683 l 308 59 q 303 38 298 18 q 290 -5 272 -5 q 252 -5 244 18 q 235 42 232 51 z"},"7":{"x_min":0,"x_max":480,"ha":480,"o":"m 20 710 q 20 742 44 766 q 68 790 101 790 l 395 790 q 407 790 413 790 q 430 790 440 788 q 450 785 454 777 q 458 769 458 762 q 458 754 451 740 q 444 727 440 720 l 43 8 q 36 -5 21 -5 q 15 -5 10 -2 q 2 4 2 15 q 2 20 6 30 l 284 538 q 292 553 301 568 q 306 578 306 586 q 306 596 300 604 q 295 611 284 615 q 273 619 260 619 l 107 619 q 70 619 45 646 q 20 673 20 710 z"},"S":{"x_min":0,"x_max":490,"ha":490,"o":"m 2 506 l 2 639 q 2 711 65 756 q 128 800 209 800 q 288 800 344 767 q 409 729 409 663 l 409 575 q 409 543 384 522 q 358 500 324 500 q 263 500 251 558 q 243 613 235 669 q 223 703 197 724 q 171 745 141 745 q 119 745 102 731 q 69 702 53 676 q 37 649 37 626 q 37 575 134 522 q 225 475 316 428 q 414 366 414 294 l 414 130 q 414 69 357 33 q 309 3 234 -5 q 226 -5 216 -6 q 207 -7 202 -7 q 122 -7 67 26 q 4 64 4 130 l 4 210 q 4 245 30 274 q 56 303 88 303 q 99 303 108 299 q 176 271 180 164 q 185 57 236 57 q 291 57 312 65 q 333 73 349 92 q 379 126 379 156 q 379 206 282 261 q 191 311 100 362 q 2 429 2 506 z"},"Z":{"x_min":0,"x_max":472,"ha":472,"o":"m 54 806 l 368 806 q 380 806 393 806 q 406 804 411 796 q 416 789 416 781 q 416 774 411 764 q 403 748 402 744 l 178 124 q 170 101 169 98 q 167 90 167 82 q 167 72 173 62 q 179 53 191 48 q 203 44 220 44 l 412 44 q 426 44 437 38 q 448 31 448 18 q 448 8 438 2 q 428 -4 416 -4 l 90 -4 q 38 -4 14 36 q 2 55 2 78 q 2 96 10 120 l 202 688 q 206 702 209 712 q 212 723 212 729 q 212 742 203 750 q 194 759 186 762 q 177 764 162 764 l 58 764 q 45 764 36 769 q 26 774 26 784 q 26 794 34 800 q 42 806 54 806 z"},"x":{"x_min":0,"x_max":475,"ha":475,"o":"m 46 434 q 35 451 35 474 q 35 520 75 546 q 86 554 98 557 q 110 560 125 560 q 169 560 190 527 l 242 450 q 251 436 259 430 q 267 424 281 424 q 303 424 311 438 l 379 553 q 385 563 399 563 q 407 563 414 558 q 422 554 422 541 q 422 532 418 525 l 325 367 q 320 358 315 349 q 310 340 310 330 q 310 323 314 316 q 318 309 320 305 l 433 122 q 444 104 444 82 q 444 62 435 44 q 426 26 407 12 q 388 -1 361 -1 q 312 -1 287 38 l 210 155 q 202 168 197 173 q 188 182 179 182 q 162 182 150 174 q 139 165 131 150 l 55 9 q 49 -3 31 -3 q 22 -3 16 2 q 10 7 10 20 q 10 27 13 33 l 126 230 q 136 249 136 268 q 136 290 130 300 z"},")":{"x_min":0,"x_max":195,"ha":195,"o":"m 81 643 q 66 680 50 709 q 38 731 10 771 q 5 776 5 786 q 5 799 13 804 q 21 808 27 808 q 39 808 45 799 q 73 759 90 728 q 107 697 125 651 q 152 582 164 526 q 175 469 175 400 q 175 327 166 276 q 157 224 130 151 q 102 78 49 3 q 43 -6 30 -6 q 25 -6 17 -2 q 9 3 9 16 q 9 24 14 31 q 39 65 54 94 q 70 122 85 159 q 111 223 121 278 q 131 332 131 403 q 131 475 120 524 q 110 572 81 643 z"},"&":{"x_min":0,"x_max":804,"ha":804,"o":"m 126 441 l 7 637 q 3 644 0 655 q -3 666 -3 672 q -3 724 74 764 q 150 803 222 803 q 295 803 356 758 q 417 712 417 653 q 417 630 407 610 l 318 436 l 309 414 q 307 404 307 399 q 307 393 310 387 l 330 351 q 339 335 354 335 q 361 335 366 339 q 369 342 378 358 l 488 558 q 512 602 563 602 q 581 602 600 594 q 618 586 632 564 q 645 541 645 516 q 645 493 634 473 l 449 148 l 473 110 q 488 85 514 72 q 540 58 569 58 q 588 58 609 66 q 636 78 648 100 q 661 121 661 150 q 661 202 629 251 l 603 292 q 600 298 600 306 q 600 317 607 321 q 612 324 617 324 q 629 324 636 312 l 662 272 q 690 227 693 221 q 707 191 707 153 q 707 80 641 38 q 580 -1 492 -1 q 450 -1 421 7 q 392 15 358 37 q 325 17 294 8 q 263 -2 227 -2 q 211 -2 202 -1 q 192 0 168 3 q 109 12 74 31 q 31 54 19 90 q 7 127 7 152 q 7 177 22 208 q 47 253 64 288 l 119 394 z m 249 178 l 171 318 q 166 331 154 332 q 134 336 127 319 l 61 190 q 49 166 49 141 q 49 104 72 80 q 100 51 152 51 q 189 51 223 81 q 257 111 257 148 q 257 162 249 178 z m 361 601 q 370 618 370 637 q 370 676 338 710 q 306 744 265 744 q 227 744 196 713 q 165 682 165 646 q 165 630 173 616 l 249 488 q 255 477 260 472 q 264 466 273 466 q 281 466 287 474 q 293 485 296 490 z"},"v":{"x_min":0,"x_max":601,"ha":601,"o":"m 388 279 q 410 302 420 322 q 429 341 429 357 q 429 371 394 428 q 378 454 378 478 q 378 489 381 501 q 388 530 412 547 q 435 564 467 564 q 500 564 526 536 q 553 507 553 473 q 553 457 545 443 l 308 31 q 300 17 295 12 q 286 3 274 3 q 262 3 253 11 q 244 19 237 32 l 7 437 q -4 457 -4 478 q -4 521 31 545 q 54 560 82 560 q 102 560 118 552 q 134 545 144 528 l 269 323 q 282 301 310 285 q 337 269 361 269 q 378 269 388 279 z"},"O":{"x_min":0,"x_max":470,"ha":470,"o":"m -2 628 q -2 705 58 753 q 117 801 202 801 q 287 801 349 761 q 418 716 418 643 l 418 133 q 418 74 363 37 q 315 5 244 -3 q 234 -4 226 -4 q 219 -5 213 -5 q 132 -5 71 30 q -2 72 -2 141 z m 173 159 q 173 114 206 84 q 240 53 288 53 q 322 56 344 89 q 366 122 366 163 l 366 613 q 366 664 338 702 q 310 741 264 741 q 222 741 198 702 q 173 663 173 613 z"},"(":{"x_min":0,"x_max":183,"ha":183,"o":"m 50 403 q 50 327 59 277 q 68 227 96 159 q 111 122 126 94 q 142 65 167 31 q 172 26 172 16 q 172 3 164 -2 q 156 -6 150 -6 q 138 -6 132 3 q 104 44 86 76 q 68 109 52 151 q 26 219 16 274 q 6 330 6 400 q 6 474 16 526 q 27 577 56 651 q 72 691 90 726 q 109 761 136 799 q 142 808 155 808 q 160 808 168 804 q 176 799 176 786 q 176 776 171 771 q 150 740 132 708 q 113 675 100 643 q 73 577 62 524 q 50 470 50 403 z"},"C":{"x_min":0,"x_max":494,"ha":494,"o":"m -4 648 q -4 716 60 758 q 118 796 198 796 q 280 796 337 764 q 404 727 404 660 l 408 509 q 408 477 386 454 q 364 431 330 431 q 294 431 268 456 q 241 480 241 514 l 237 653 q 237 687 210 710 q 182 732 144 732 q 106 732 80 704 q 54 676 54 635 l 54 148 q 54 110 82 83 q 110 56 148 56 q 184 56 210 74 q 237 92 237 122 l 245 247 q 245 291 266 324 q 288 357 324 357 q 362 357 389 330 q 416 303 416 266 l 414 124 q 414 56 344 19 q 285 -12 200 -12 q 118 -12 56 42 q -5 97 -5 176 z"},"W":{"x_min":0,"x_max":857,"ha":857,"o":"m 4 679 q -1 693 -1 711 q -1 762 41 785 q 59 794 79 794 q 107 794 130 779 q 154 764 163 738 l 296 375 q 302 358 316 348 q 329 337 346 340 q 369 344 369 376 q 369 384 368 394 q 366 404 362 415 l 266 688 q 261 705 261 717 q 261 742 274 764 q 288 785 307 794 q 326 802 346 802 q 372 802 394 788 q 415 775 424 751 l 526 480 q 533 460 551 450 q 569 441 594 441 q 618 441 644 451 q 670 461 690 484 q 710 508 710 536 q 710 549 706 560 l 656 705 q 653 714 653 725 q 653 755 679 780 q 705 805 737 805 q 769 805 794 781 q 819 757 819 725 q 819 716 816 705 l 589 50 q 584 32 578 14 q 572 -5 556 -5 q 541 -5 533 11 q 525 34 521 45 l 446 235 q 437 260 406 260 q 392 260 382 252 q 371 244 366 230 l 298 39 q 291 18 288 13 q 280 0 266 0 q 252 0 245 10 q 238 19 232 37 z"},"A":{"x_min":0,"x_max":639,"ha":639,"o":"m 250 753 q 261 789 262 791 q 271 810 288 810 q 307 810 317 794 q 322 786 331 757 l 569 119 q 575 102 575 85 q 575 59 564 39 q 552 19 529 8 q 510 0 491 0 q 438 0 418 44 l 371 139 q 368 147 364 156 q 361 165 354 170 q 347 175 334 175 q 323 174 317 174 l 155 172 q 129 172 120 168 q 112 165 104 158 q 96 151 94 145 l 52 20 q 49 9 40 2 q 31 -5 21 -5 q 15 -5 12 -3 q -1 2 -1 19 q -1 23 0 28 q 1 32 2 36 z m 141 289 q 136 276 136 262 q 136 256 141 244 q 146 231 152 226 q 158 221 165 221 l 287 220 q 299 220 308 224 q 318 229 322 238 q 327 246 327 256 q 327 268 323 277 l 260 420 q 255 432 251 445 q 245 458 232 460 q 215 463 204 446 q 198 437 189 412 z"},"f":{"x_min":0,"x_max":423,"ha":423,"o":"m 180 748 q 129 748 115 744 q 81 734 68 698 q 54 662 54 635 q 54 587 99 566 q 132 551 189 551 l 237 551 q 249 551 258 542 q 267 534 264 523 q 260 511 241 509 l 206 503 q 195 502 186 490 q 178 479 178 462 q 178 455 178 452 l 178 76 q 178 44 154 22 q 129 1 94 1 q 57 1 30 26 q 2 52 2 88 l 2 673 q 2 722 57 768 q 117 818 198 818 q 275 818 333 785 q 415 738 415 689 q 415 636 386 618 q 365 605 319 605 q 281 605 262 650 q 220 748 180 748 z"},"Q":{"x_min":0,"x_max":469,"ha":469,"o":"m 0 141 l -1 628 q -1 705 59 753 q 119 801 204 801 q 289 801 351 761 q 420 716 420 643 l 419 133 q 419 119 416 110 q 412 101 401 83 q 398 77 384 64 q 371 52 368 41 q 365 32 369 20 q 373 9 378 -5 q 378 -13 371 -17 q 366 -20 361 -20 q 355 -20 342 -12 q 329 -5 323 -4 q 317 -3 304 -2 q 292 -1 282 -1 q 271 -1 250 -2 q 229 -3 219 -3 q 195 -3 182 0 q 98 18 58 43 q 0 79 0 141 z m 177 158 q 177 118 208 87 q 239 56 278 56 q 289 56 300 59 q 333 68 350 97 q 368 126 368 163 l 368 613 q 368 664 340 702 q 312 741 266 741 q 224 741 200 702 q 177 664 177 613 z"},"w":{"x_min":0,"x_max":889,"ha":889,"o":"m 836 441 l 607 34 q 600 21 598 18 q 587 3 572 3 q 561 3 554 10 q 547 17 540 31 l 464 167 q 456 183 436 183 q 423 183 414 180 q 404 176 400 167 l 318 26 q 313 16 306 10 q 300 3 290 3 q 279 3 269 13 q 263 19 260 25 l 14 430 q 2 451 2 475 q 2 526 44 551 q 69 565 95 565 q 142 565 164 528 l 324 263 q 332 250 344 242 q 355 233 368 233 q 376 233 380 235 q 400 244 400 270 q 400 286 392 299 l 302 447 q 294 460 294 479 q 294 502 306 521 q 318 540 340 550 q 362 561 381 561 q 423 561 444 527 l 570 321 q 583 300 602 288 q 621 275 643 275 q 669 275 692 297 q 710 315 718 330 q 725 346 725 362 q 725 381 690 442 q 674 470 674 489 q 674 504 682 519 q 711 571 758 571 q 764 571 785 568 q 806 564 826 538 q 845 511 845 478 q 845 458 836 441 z"},"-":{"x_min":0,"x_max":438,"ha":438,"o":"m 3 379 q 1 390 8 400 q 16 410 27 410 l 370 407 q 379 407 386 400 q 394 394 394 385 q 394 359 372 359 l 28 358 q 7 358 3 379 z"},"E":{"x_min":0,"x_max":498,"ha":498,"o":"m 2 686 q 2 703 2 711 q 2 733 6 747 q 9 761 22 774 q 48 800 89 800 l 356 800 q 368 800 378 794 q 388 788 388 777 q 388 767 380 759 q 372 751 361 751 l 225 751 q 207 751 200 750 q 193 748 186 740 q 179 731 179 717 q 180 706 180 699 l 180 471 q 180 463 180 452 q 181 442 191 434 q 196 430 204 428 q 212 426 221 426 l 357 426 q 373 426 384 421 q 395 416 395 404 q 395 391 386 382 q 377 373 363 373 l 235 373 q 224 373 212 372 q 201 372 194 366 q 186 359 184 348 q 181 336 181 322 l 181 127 q 181 110 188 98 q 195 87 210 73 q 225 59 228 57 q 238 50 250 50 l 429 50 q 442 50 452 42 q 461 35 461 24 q 461 14 452 6 q 442 -1 430 -1 l 91 -1 q 70 -1 59 3 q 48 7 31 21 q 14 35 8 53 q 2 71 2 101 z"},"s":{"x_min":0,"x_max":463,"ha":463,"o":"m -1 365 l -2 407 q -2 477 65 518 q 125 555 208 555 q 274 555 344 516 q 413 476 413 429 q 413 411 401 393 q 385 369 366 354 q 346 340 323 340 q 314 340 310 341 q 267 349 219 442 q 196 486 156 493 q 151 494 141 494 q 103 494 70 468 q 36 441 36 410 q 36 341 80 314 q 107 297 147 297 q 177 300 208 300 q 296 300 347 274 q 408 243 408 177 l 409 127 q 409 79 346 36 q 284 -6 221 -6 q 136 -6 70 29 q -6 69 -6 135 q -6 141 -3 162 q 0 182 25 196 q 50 210 82 210 q 99 210 114 205 q 146 194 168 130 q 189 67 216 64 q 242 61 252 61 q 296 61 324 81 q 357 105 363 153 q 364 158 364 168 q 364 225 299 241 q 259 251 127 251 q 78 251 38 286 q -1 322 -1 365 z"},"l":{"x_min":0,"x_max":218,"ha":218,"o":"m 2 736 q 2 766 26 786 q 50 806 82 806 q 117 806 144 786 q 171 767 171 735 l 171 66 q 171 38 146 20 q 122 1 90 1 q 55 1 28 20 q 2 39 2 70 z"},"8":{"x_min":0,"x_max":466,"ha":466,"o":"m 410 170 q 418 153 422 139 q 426 125 426 108 q 426 47 352 17 q 293 -7 211 -7 q 186 -7 174 -5 q 161 -3 156 -3 q 101 6 64 27 q 28 48 14 86 q -1 125 -1 152 q -1 176 11 204 q 23 233 52 282 l 122 399 l 122 439 l 5 641 q -5 658 -5 677 q -5 728 64 770 q 133 811 200 811 q 287 811 358 762 q 430 712 430 648 q 430 623 417 598 l 307 398 l 306 363 z m 245 174 l 179 300 q 174 312 170 316 q 163 324 154 324 q 130 324 123 307 l 61 182 q 49 158 49 134 q 49 97 73 72 q 101 43 154 43 q 190 43 221 74 q 252 105 252 143 q 252 160 245 174 z m 367 607 q 376 624 376 642 q 376 679 346 712 q 315 744 277 744 q 239 744 208 714 q 176 683 176 648 q 176 633 183 620 l 249 494 q 253 485 258 476 q 262 466 271 466 q 280 466 286 472 q 291 477 296 487 z"},"e":{"x_min":0,"x_max":446,"ha":446,"o":"m 389 149 q 400 132 400 113 q 400 74 357 37 q 314 0 265 -9 q 245 -13 217 -13 q 132 -13 67 31 q -4 79 -4 155 l -4 396 q -4 467 58 510 q 119 552 198 552 q 279 552 337 513 q 401 470 401 399 q 401 339 360 294 q 320 250 261 250 l 105 240 q 78 240 62 214 q 47 188 47 153 q 47 113 65 91 q 83 69 100 60 q 118 52 139 52 q 148 52 159 54 q 170 55 177 56 q 211 61 232 126 q 253 192 275 194 q 297 197 304 197 q 312 197 316 197 q 347 197 362 185 q 370 179 389 149 z m 338 333 q 358 364 358 400 q 358 448 321 476 q 295 495 264 495 q 239 495 214 484 q 190 474 176 444 q 162 415 162 341 q 162 323 162 315 q 162 300 178 292 q 195 283 220 283 q 254 283 288 296 q 323 310 338 333 z"},"b":{"x_min":0,"x_max":460,"ha":460,"o":"m 420 425 l 420 137 q 420 70 356 30 q 298 -6 217 -6 q 206 -6 201 -6 q 194 -5 191 -5 q 111 2 59 40 q -1 83 -1 152 l -1 741 q -1 769 22 787 q 45 805 76 805 q 112 805 140 786 q 167 767 167 735 l 167 588 q 167 572 177 562 q 183 556 187 556 l 251 556 q 286 556 306 552 q 325 549 349 534 q 384 513 402 488 q 420 462 420 425 z m 41 155 q 41 115 70 88 q 99 61 140 61 q 182 61 212 90 q 242 119 242 160 l 242 409 q 242 451 208 478 q 174 505 126 505 q 89 505 65 470 q 41 435 41 390 z"},"%":{"x_min":0,"x_max":707,"ha":707,"o":"m 390 290 q 390 335 430 360 q 471 384 525 384 q 589 384 631 364 q 683 339 683 290 l 683 91 q 683 48 642 24 q 609 4 553 -1 q 546 -2 540 -2 q 533 -2 530 -2 q 474 -2 435 20 q 390 46 390 92 z m 6 692 q 6 741 48 770 q 90 799 146 799 q 206 799 250 773 q 300 743 300 692 l 300 494 q 300 450 261 425 q 222 400 170 400 q 104 400 59 425 q 6 454 6 508 z m 88 -31 q 86 -35 80 -36 q 73 -38 69 -35 q 66 -33 65 -30 q 63 -23 66 -17 l 605 826 q 608 831 615 831 q 619 831 626 826 q 634 820 628 810 z m 131 488 q 131 464 154 452 q 177 440 207 440 q 235 440 254 460 q 274 481 274 509 l 274 685 q 274 716 254 739 q 235 762 205 762 q 175 762 153 743 q 131 724 131 695 z m 515 86 q 515 64 534 50 q 554 37 581 37 q 587 38 590 38 q 615 41 631 55 q 647 69 647 91 l 647 293 q 647 317 628 332 q 608 348 581 348 q 555 348 535 332 q 515 317 515 293 z"},"m":{"x_min":0,"x_max":704,"ha":704,"o":"m 607 364 q 612 372 612 393 q 612 431 594 460 q 570 498 525 498 q 463 498 438 460 q 419 431 419 374 l 419 81 q 419 48 394 24 q 370 1 337 1 q 301 1 273 22 q 245 43 245 76 l 245 368 q 245 419 225 455 q 202 497 161 497 q 148 498 143 498 q 99 498 74 470 q 48 441 48 380 q 48 343 111 307 q 174 271 174 234 l 174 77 q 174 44 146 24 q 119 3 83 3 q 50 3 24 24 q -1 46 -1 77 l -1 319 q -1 436 22 476 q 59 541 185 560 q 191 561 204 561 q 229 561 252 554 q 323 533 329 532 q 334 532 400 550 q 433 559 466 559 q 579 559 624 498 q 661 448 661 342 l 661 76 q 661 44 636 24 q 611 3 576 3 q 540 3 514 24 q 487 45 487 78 l 487 228 q 487 267 530 295 q 588 333 607 364 z"},",":{"x_min":0,"x_max":268,"ha":268,"o":"m 213 90 q 218 67 218 50 q 218 5 185 -50 q 170 -75 142 -98 q 115 -120 94 -120 q 76 -120 69 -102 q 61 -83 102 -62 q 144 -41 138 -15 q 135 -1 129 8 q 123 18 111 18 q 70 18 47 29 q 6 49 -1 106 q -5 147 25 176 q 55 205 98 205 q 143 205 173 171 q 200 141 213 90 z"},"n":{"x_min":0,"x_max":479,"ha":479,"o":"m 0 404 q 0 478 67 524 q 129 566 214 566 q 300 566 361 529 q 430 487 430 414 l 430 78 q 430 46 408 24 q 386 2 352 2 q 346 1 343 1 q 308 1 283 20 q 258 39 258 70 l 258 403 q 258 442 230 474 q 201 507 164 507 q 155 507 151 506 q 96 495 72 470 q 47 444 47 411 q 47 386 58 364 q 70 343 90 329 q 125 308 161 287 q 182 270 182 246 l 182 70 q 182 39 158 18 q 135 -2 100 -2 q 93 -3 88 -3 q 53 -3 29 11 q 0 28 0 59 z"},"h":{"x_min":0,"x_max":459,"ha":459,"o":"m 166 244 l 166 68 q 166 37 142 16 q 119 -4 86 -4 q 51 -4 24 13 q -2 30 -2 60 l -2 744 q -2 774 22 793 q 45 812 78 812 q 114 812 140 798 q 166 785 166 756 l 166 596 q 166 580 174 572 q 182 564 194 564 l 234 562 q 274 562 298 556 q 322 549 352 526 q 382 504 398 476 q 414 449 414 412 l 414 76 q 414 44 392 22 q 370 0 336 0 q 330 -1 327 -1 q 292 -1 267 18 q 242 37 242 68 l 242 401 q 242 440 213 469 q 184 498 144 498 q 98 498 74 469 q 49 440 49 401 q 49 380 57 360 q 65 341 80 330 q 118 307 135 295 q 166 272 166 244 z"},"z":{"x_min":0,"x_max":488,"ha":488,"o":"m 97 570 l 388 570 q 405 570 414 568 q 424 565 428 556 q 432 548 432 543 q 432 535 426 524 q 420 514 417 509 l 203 123 q 197 111 194 100 q 190 90 192 80 q 195 65 202 54 q 210 44 224 44 l 422 44 q 446 44 446 20 q 446 0 422 0 l 87 0 q 62 0 44 8 q 27 17 14 36 q 0 56 0 78 q 0 94 6 111 q 12 128 22 145 l 197 445 q 202 454 206 464 q 210 475 210 484 q 210 495 204 504 q 198 513 187 517 q 176 521 163 521 l 98 521 q 88 521 81 529 q 74 537 74 548 q 74 556 81 563 q 88 570 97 570 z"},"B":{"x_min":0,"x_max":481,"ha":481,"o":"m 373 395 q 373 383 385 373 q 402 358 405 353 q 412 336 418 320 q 424 305 424 287 l 424 142 q 424 72 361 27 q 302 -15 224 -15 q 136 -15 74 20 q 2 61 2 134 l 2 621 q 2 701 46 746 q 95 797 191 797 q 283 797 346 762 q 421 720 421 643 l 421 502 q 421 485 415 467 q 413 462 400 432 q 397 427 385 416 q 373 405 373 395 z m 179 318 l 179 130 q 179 95 210 74 q 240 52 282 52 q 321 52 350 81 q 379 110 379 152 l 379 283 q 379 299 372 311 q 365 323 350 339 q 336 355 328 361 q 319 367 307 367 l 217 367 q 205 367 198 366 q 190 364 184 357 q 179 350 179 329 q 179 321 179 318 z m 186 428 q 192 419 203 419 l 295 419 q 314 419 328 429 q 342 439 358 462 q 375 484 375 514 l 375 657 q 375 692 344 713 q 312 734 271 734 q 233 734 207 707 q 181 680 181 640 l 181 460 q 181 435 186 428 z"},"K":{"x_min":0,"x_max":565,"ha":565,"o":"m 359 530 l 504 140 q 510 122 513 108 q 516 94 516 77 q 516 54 508 36 q 501 19 482 9 q 463 -1 440 -1 q 413 -1 390 12 q 368 26 359 50 l 244 350 q 240 361 232 368 q 225 376 214 376 q 197 377 186 363 q 174 349 174 330 l 174 87 q 174 51 152 25 q 131 -1 96 -1 q 91 -2 87 -2 q 51 -2 26 22 q 0 45 0 80 l -1 718 q -1 752 24 776 q 49 800 84 800 q 121 800 147 774 q 173 748 173 711 l 173 525 q 173 475 177 457 q 185 421 212 426 q 230 429 240 447 q 242 451 254 485 l 360 776 q 363 787 372 794 q 380 802 390 802 q 393 802 399 800 q 410 794 410 779 q 410 771 406 757 l 358 623 q 353 608 350 599 q 347 590 347 580 q 347 570 349 561 q 350 558 359 530 z"},"R":{"x_min":0,"x_max":491,"ha":491,"o":"m -3 636 q -3 712 63 761 q 124 806 209 806 q 232 806 243 804 q 319 793 366 758 q 421 717 421 652 l 421 504 q 421 485 418 473 q 414 461 402 435 q 399 427 384 414 q 370 401 373 390 q 375 383 382 378 q 394 369 395 368 q 428 326 428 280 l 428 31 q 428 18 422 10 q 415 1 405 1 q 390 1 380 9 q 370 17 370 31 l 370 292 q 370 313 360 328 q 351 342 331 356 q 322 362 315 365 q 300 372 283 372 l 219 376 q 211 376 201 376 q 191 375 181 365 q 175 359 173 349 q 171 339 171 327 q 171 317 171 312 l 171 80 q 171 49 150 27 q 130 5 99 0 q 95 -1 86 -1 q 51 -1 24 21 q -3 43 -3 76 z m 171 460 q 171 448 172 441 q 174 434 179 428 q 184 423 191 421 q 195 420 205 420 q 212 420 215 420 l 297 422 q 326 422 347 446 q 356 457 362 468 q 367 480 367 494 l 367 664 q 367 699 338 722 q 308 744 269 744 q 262 744 259 744 q 220 740 196 710 q 171 681 171 640 z"},"T":{"x_min":0,"x_max":555,"ha":555,"o":"m 176 685 q 176 704 174 714 q 173 724 165 733 q 151 748 121 748 l 22 748 q 12 748 6 756 q 0 764 0 776 q 0 785 8 791 q 16 797 26 797 l 494 797 q 505 797 514 790 q 522 782 522 771 q 522 762 515 754 q 508 747 499 747 l 398 747 q 380 747 372 746 q 364 744 356 736 q 348 729 346 722 q 344 714 344 703 q 344 694 344 689 l 344 83 q 344 47 322 22 q 299 -4 265 -4 q 230 -4 203 21 q 176 46 176 81 z"},"P":{"x_min":0,"x_max":504,"ha":504,"o":"m 2 627 q 2 704 68 752 q 135 801 221 801 q 226 801 234 800 q 242 800 252 799 q 330 790 379 756 q 438 716 438 651 l 438 371 q 438 332 409 304 q 390 286 342 259 q 314 244 276 240 q 238 237 216 236 q 195 234 192 222 q 188 210 188 194 l 188 79 q 188 47 164 23 q 140 -1 110 -1 q 66 -1 34 23 q 2 47 2 85 z m 61 376 q 61 340 91 317 q 121 294 161 294 q 170 295 174 295 q 212 299 236 321 q 260 343 260 378 l 260 641 q 260 682 228 710 q 197 739 154 739 q 115 739 88 710 q 61 681 61 641 z"},"t":{"x_min":0,"x_max":323,"ha":323,"o":"m 20 554 l 102 554 q 115 554 126 558 q 136 563 148 573 q 160 583 166 594 q 171 604 171 619 l 171 672 q 171 684 178 692 q 185 700 197 700 q 207 700 213 696 q 225 688 225 671 l 225 581 q 225 567 230 560 q 234 552 244 552 l 265 552 q 274 552 280 545 q 286 538 286 529 q 286 520 280 512 q 275 505 267 505 l 243 505 q 232 505 228 497 q 226 493 231 486 q 236 478 236 474 l 236 70 q 236 38 211 16 q 186 -6 152 -6 q 113 -6 84 16 q 55 38 55 74 l 55 480 q 55 495 52 498 q 47 503 37 503 l 20 503 q -2 503 -2 529 q -2 539 4 546 q 11 554 20 554 z"},"M":{"x_min":0,"x_max":724,"ha":724,"o":"m 1 722 q 1 755 24 778 q 46 802 79 802 q 109 802 131 786 q 153 770 163 741 l 287 413 q 298 380 305 370 q 319 349 341 349 q 362 349 374 371 q 379 381 391 417 l 499 737 q 509 767 532 785 q 556 803 586 803 q 591 803 603 801 q 638 794 658 766 q 679 739 679 701 l 679 88 q 679 52 657 26 q 635 0 601 0 q 563 0 536 27 q 509 54 509 93 l 509 357 q 509 382 502 398 q 495 413 475 417 q 456 420 443 404 q 430 389 423 365 l 313 38 q 308 20 304 13 q 297 0 285 0 q 272 0 265 10 q 258 19 252 36 l 127 361 q 122 377 112 387 q 101 397 87 393 q 76 390 72 379 q 67 368 67 353 l 67 37 q 67 22 58 10 q 50 -1 36 -1 q 21 -1 11 11 q 1 23 1 39 z"},"g":{"x_min":0,"x_max":469,"ha":469,"o":"m 202 -201 q 129 -201 71 -169 q 6 -133 6 -77 q 5 -71 5 -69 q 5 -34 38 -6 q 85 33 86 35 q 89 40 50 63 q 4 89 4 133 q 4 169 25 194 q 48 214 72 235 q 72 247 60 253 q 48 259 36 265 q 15 280 8 291 q 2 302 2 315 l 2 413 q 2 458 25 491 q 48 524 90 535 q 116 542 144 550 q 171 557 198 557 l 408 557 q 429 557 434 539 q 437 528 433 520 q 429 511 419 509 l 398 505 q 386 503 383 493 q 379 482 387 473 q 412 446 412 387 q 412 330 374 288 q 337 247 282 247 l 202 245 q 191 245 186 237 q 180 229 178 215 q 171 180 230 146 q 288 113 346 81 q 410 37 410 -17 l 408 -63 q 408 -130 341 -168 q 283 -201 202 -201 z m 186 -35 q 186 -77 210 -109 q 235 -141 274 -141 q 312 -141 339 -112 q 366 -83 366 -43 q 366 -2 341 28 q 316 59 278 59 q 240 59 213 31 q 186 3 186 -35 z m 170 391 q 170 351 200 324 q 230 297 272 297 q 310 297 336 327 q 362 357 362 397 q 362 435 334 463 q 306 491 268 491 q 226 491 198 462 q 170 433 170 391 z"},"j":{"x_min":0,"x_max":386,"ha":386,"o":"m 264 619 q 224 619 200 646 q 177 672 177 707 q 177 739 198 762 q 218 786 256 786 q 296 786 321 758 q 343 733 343 698 q 343 666 322 642 q 302 619 264 619 z m 181 455 q 181 491 202 518 q 224 545 258 545 q 294 545 319 518 q 344 491 344 454 l 344 30 q 344 -15 314 -46 q 285 -78 236 -94 q 187 -109 137 -109 q 77 -109 38 -89 q -1 -69 4 -45 q 8 -29 25 -29 q 34 -29 69 -38 q 88 -43 98 -43 q 110 -43 118 -39 q 148 -23 162 -8 q 181 13 181 40 z"},"i":{"x_min":0,"x_max":225,"ha":225,"o":"m 87 626 q 46 626 22 653 q -2 680 -2 716 q -2 749 17 770 q 36 792 75 792 q 116 792 140 765 q 164 738 164 702 q 164 669 145 648 q 126 626 87 626 z m 2 473 q 2 507 27 530 q 52 553 87 553 q 120 553 144 532 q 168 511 168 478 l 168 83 q 168 50 146 26 q 123 1 90 1 q 54 1 28 25 q 2 49 2 85 z"},"y":{"x_min":0,"x_max":571,"ha":571,"o":"m 37 445 q 27 462 27 484 q 27 530 67 554 q 87 566 110 566 q 157 566 179 529 l 297 330 q 304 318 312 312 q 320 305 332 305 q 346 305 354 312 q 362 320 372 336 l 506 560 q 511 569 523 569 q 531 569 538 564 q 546 558 546 546 q 546 540 543 535 l 146 -147 q 129 -177 86 -177 q 60 -177 38 -164 q 17 -151 10 -126 q 2 -102 2 -85 q 2 -62 14 -44 q 26 -26 52 -15 q 68 -9 83 -6 q 98 -4 113 -4 q 121 -4 125 -4 q 151 -4 166 4 q 189 16 211 53 q 225 74 225 96 q 225 108 219 120 z"},".":{"x_min":0,"x_max":223,"ha":223,"o":"m 86 -7 q 44 -7 20 20 q -4 47 -4 84 q -4 117 16 140 q 37 163 76 163 q 118 163 142 136 q 166 109 166 72 q 166 39 147 18 q 125 -7 86 -7 z"},"p":{"x_min":0,"x_max":460,"ha":460,"o":"m 364 36 q 313 -5 244 -5 l 196 -5 q 179 -5 174 -14 q 168 -22 168 -35 l 168 -120 q 168 -151 143 -170 q 118 -188 83 -188 q 50 -188 25 -168 q 0 -147 0 -116 l 0 401 q 0 469 61 511 q 116 549 194 549 q 281 549 345 517 q 424 478 424 406 l 424 140 q 424 107 410 84 q 395 62 364 36 z m 53 155 q 53 110 76 78 q 100 46 144 46 q 185 46 217 78 q 249 110 249 154 l 249 403 q 249 441 218 468 q 186 494 145 494 q 107 494 80 467 q 53 440 53 402 z"},"X":{"x_min":0,"x_max":526,"ha":526,"o":"m 29 695 q 24 709 24 711 q 24 719 24 722 q 24 771 69 795 q 92 807 119 807 q 143 807 160 797 q 178 787 185 767 l 233 631 q 240 610 252 598 q 263 585 281 585 q 305 585 317 616 q 325 640 329 651 l 377 779 q 381 791 388 799 q 395 807 405 807 q 415 807 421 797 q 427 787 427 775 q 427 771 425 763 l 337 535 q 329 512 329 487 q 329 471 335 451 l 465 107 q 470 94 470 77 q 470 26 425 3 q 403 -8 380 -8 q 357 -8 340 2 q 323 11 315 31 l 221 259 q 215 274 207 282 q 199 291 185 291 q 171 291 160 283 q 150 275 145 261 l 61 23 q 56 9 44 0 q 33 -10 21 -5 q 9 0 9 16 q 9 27 15 43 l 133 371 q 135 379 135 383 q 135 386 134 394 q 133 401 133 406 q 132 412 130 420 q 128 427 125 435 z"},"*":{"x_min":0,"x_max":236,"ha":236,"o":"m 115 614 l 83 592 q 74 586 64 586 q 60 586 52 589 q 45 592 41 602 q 37 611 40 620 l 55 663 l 25 679 q 10 687 10 705 q 10 716 18 724 q 25 733 35 733 l 76 733 l 83 771 q 84 779 91 784 q 98 789 115 789 q 138 789 141 772 l 151 732 l 193 732 q 203 732 210 724 q 217 716 217 704 q 217 686 202 678 l 172 662 l 187 619 q 190 610 186 600 q 182 591 173 587 q 170 586 167 585 q 163 585 162 585 q 152 585 144 591 z"},"Y":{"x_min":0,"x_max":484,"ha":484,"o":"m 9 687 q 3 704 3 720 q 3 770 45 791 q 64 801 88 801 q 109 801 124 793 q 140 785 147 767 l 233 563 q 245 534 251 525 q 265 506 283 510 q 294 513 302 522 q 309 530 313 543 l 393 771 q 398 787 407 797 q 416 807 429 803 q 440 799 444 789 q 448 779 445 767 l 321 411 q 314 397 312 391 q 307 380 307 370 l 305 349 l 305 63 q 305 32 282 12 q 258 -9 225 -9 q 190 -9 164 12 q 137 34 137 67 l 137 315 q 137 335 133 355 q 126 373 123 383 z"},"c":{"x_min":0,"x_max":472,"ha":472,"o":"m 407 80 q 392 40 340 17 q 289 -6 227 -6 q 137 -6 73 36 q 1 83 1 162 l 1 392 q 1 466 68 513 q 130 556 215 556 q 284 556 353 516 q 422 477 422 424 q 422 412 418 401 q 415 390 406 377 q 398 364 380 352 q 362 341 339 341 q 312 341 285 362 q 278 368 237 442 q 205 500 163 500 q 114 500 80 468 q 47 437 47 390 l 47 152 q 47 110 82 82 q 117 54 163 54 q 207 54 245 134 q 267 179 285 194 q 294 202 304 205 q 315 208 329 208 q 364 208 390 186 q 416 163 416 124 q 416 104 407 80 z"},"!":{"x_min":0,"x_max":197,"ha":197,"o":"m 88 805 q 125 805 150 774 q 174 744 174 704 q 174 695 173 690 l 118 310 q 116 279 114 260 q 112 240 96 240 q 74 240 66 264 q 63 272 58 310 l 3 690 q 2 695 2 704 q 2 744 26 774 q 51 805 88 805 z m 98 0 q 59 0 37 25 q 15 50 15 83 q 15 115 36 138 q 56 160 93 160 q 132 160 154 135 q 176 110 176 77 q 176 45 156 22 q 135 0 98 0 z"},"/":{"x_min":0,"x_max":369,"ha":369,"o":"m 306 769 q 313 789 334 789 q 339 789 346 785 q 354 781 354 765 q 354 758 351 750 l 61 23 q 56 10 46 0 q 37 -9 26 -9 q 21 -9 16 -6 q 6 0 6 12 q 6 18 8 25 q 10 32 15 44 z"},"6":{"x_min":0,"x_max":493,"ha":493,"o":"m 325 753 q 349 796 400 796 q 426 796 444 782 q 478 759 478 716 q 478 705 476 698 q 474 691 468 678 l 282 345 l 381 181 q 391 164 394 146 q 398 129 398 105 q 398 50 335 23 q 295 6 216 -3 q 209 -4 194 -4 q 119 -4 60 41 q 0 86 0 153 q 1 162 1 166 q 3 186 8 200 q 10 205 36 251 z m 50 174 q 43 161 43 146 q 43 112 74 83 q 105 54 142 54 q 177 54 207 83 q 237 112 237 147 q 237 163 230 176 l 166 298 q 163 304 160 311 q 153 324 142 324 q 133 324 127 314 q 121 303 119 299 z"},"r":{"x_min":0,"x_max":471,"ha":471,"o":"m -1 405 q -1 476 66 520 q 126 559 209 559 q 292 559 351 524 q 419 484 419 414 l 419 209 q 419 182 399 163 q 379 144 349 139 q 345 138 337 138 q 304 138 279 163 q 254 188 248 224 q 241 262 306 302 q 375 345 375 378 q 375 385 374 389 q 361 460 334 480 q 308 499 259 499 q 226 499 201 476 q 176 453 176 420 l 176 82 q 176 47 151 23 q 126 -1 90 -1 q 54 -1 26 24 q -1 48 -1 84 z"},"2":{"x_min":0,"x_max":454,"ha":454,"o":"m 8 529 l 8 650 q 8 718 68 758 q 122 794 200 794 q 274 794 334 752 q 394 709 394 645 q 394 636 392 624 q 391 612 384 596 q 372 574 366 562 l 185 235 q 177 221 177 208 q 177 200 182 190 q 194 167 217 167 l 361 167 q 392 167 412 143 q 432 119 432 86 q 432 52 412 26 q 391 0 359 0 l 82 0 q 58 0 48 2 q 39 4 34 13 q 28 22 28 29 q 28 39 36 51 q 44 63 52 75 l 341 592 q 353 615 353 641 q 353 672 336 699 q 320 726 292 735 q 275 740 261 740 q 225 740 196 718 q 167 697 167 664 l 167 550 q 167 516 142 494 q 116 471 80 471 q 51 471 30 486 q 8 501 8 529 z"},"9":{"x_min":0,"x_max":440,"ha":440,"o":"m 22 -19 q 17 -13 13 -7 q 13 1 20 16 q 28 32 49 70 l 166 269 q 171 279 173 284 q 176 292 176 300 q 176 308 174 315 q 173 319 163 337 l 1 629 q -8 644 -8 665 q -8 717 57 759 q 122 801 188 801 q 272 801 342 748 q 412 695 412 630 q 412 603 397 576 l 51 -10 q 44 -23 29 -23 q 23 -23 22 -19 z m 355 597 q 364 614 364 632 q 364 669 334 702 q 303 734 265 734 q 226 734 194 703 q 162 672 162 634 q 162 617 169 603 l 237 475 q 239 469 244 460 q 248 450 259 450 q 268 450 274 460 q 281 471 284 477 z"}," ":{"x_min":0,"x_max":372,"ha":372,"o":""},"I":{"x_min":0,"x_max":241,"ha":241,"o":"m -7 724 q -7 765 20 792 q 47 819 88 819 q 124 819 152 792 q 179 766 179 728 l 179 90 q 179 49 153 20 q 127 -9 88 -9 q 48 -9 20 16 q -7 42 -7 82 z"},"H":{"x_min":0,"x_max":485,"ha":485,"o":"m 7 704 q 7 743 31 770 q 55 797 92 797 q 129 797 158 775 q 187 753 187 718 l 187 508 q 187 496 187 484 q 189 473 196 464 q 203 456 208 451 q 214 446 223 446 l 336 446 q 346 446 354 450 q 362 455 370 462 q 377 470 380 478 q 382 486 382 505 q 382 515 382 521 l 382 744 q 382 768 388 782 q 393 797 409 797 q 424 797 431 782 q 438 766 438 744 l 438 47 q 438 14 430 2 q 422 -11 407 -11 q 398 -11 392 0 q 387 10 387 37 q 387 44 387 47 l 387 346 q 387 360 384 370 q 381 380 374 388 q 366 395 356 400 q 347 404 338 404 l 226 402 q 220 402 214 398 q 207 395 201 389 q 185 374 185 348 l 185 92 q 185 51 162 21 q 140 -9 104 -9 q 62 -13 34 18 q 7 49 7 94 z"},"4":{"x_min":0,"x_max":455,"ha":455,"o":"m 306 771 q 313 785 320 792 q 326 798 337 798 q 348 798 354 786 q 359 775 359 761 l 359 273 q 359 263 363 254 q 367 246 374 238 q 385 225 395 225 l 432 225 q 440 225 445 217 q 450 209 449 200 q 449 179 432 179 l 399 179 q 386 179 379 176 q 364 168 364 150 l 364 61 q 364 32 339 16 q 314 -1 280 -1 q 246 -1 220 16 q 195 33 195 62 l 195 134 q 195 151 194 155 q 192 164 185 172 q 178 180 170 182 q 163 184 153 184 q 145 184 140 184 l 50 184 q 43 184 39 184 q 22 184 14 193 q 7 202 7 210 q 7 219 12 230 q 18 241 21 247 z m 196 274 l 194 344 q 194 358 182 369 q 171 380 158 376 q 143 371 117 330 q 91 290 91 261 q 91 254 95 246 q 105 228 132 228 q 155 228 176 242 q 196 255 196 274 z"},"D":{"x_min":0,"x_max":507,"ha":507,"o":"m 4 639 q 4 687 29 720 q 54 752 102 774 q 150 797 213 797 q 298 797 360 760 q 429 718 429 649 l 429 100 q 429 63 424 49 q 419 35 406 23 q 393 11 378 6 q 364 2 341 2 l 4 2 z m 60 97 q 60 81 62 72 q 63 64 72 57 q 81 50 94 50 l 167 50 q 198 50 225 76 q 252 101 252 143 l 252 639 q 252 679 220 706 q 187 732 140 732 q 106 732 83 706 q 60 679 60 640 z"},"0":{"x_min":0,"x_max":480,"ha":480,"o":"m 12 625 q 12 702 72 750 q 131 798 216 798 q 301 798 363 758 q 432 713 432 640 l 432 130 q 432 71 377 34 q 329 2 258 -6 q 248 -7 240 -8 q 233 -8 227 -8 q 146 -8 85 27 q 12 69 12 138 z m 185 155 q 185 110 220 80 q 255 50 302 50 q 336 53 358 86 q 380 119 380 160 l 380 610 q 380 661 352 700 q 324 738 278 738 q 235 738 210 699 q 185 660 185 610 z"},"F":{"x_min":0,"x_max":438,"ha":438,"o":"m 103 -5 q 59 -5 31 25 q 3 55 3 100 l 3 676 q 3 695 3 705 q 3 730 6 746 q 10 761 23 773 q 48 795 90 795 l 357 795 q 373 795 385 788 q 397 780 397 764 q 397 752 381 749 q 365 746 354 746 l 246 740 q 221 740 201 720 q 181 700 181 670 l 181 470 q 181 458 181 446 q 183 434 192 428 q 200 421 220 421 l 332 421 q 347 421 358 414 q 368 406 368 393 q 368 381 356 374 q 345 366 330 366 l 226 366 q 217 366 210 366 q 202 365 194 360 q 186 354 183 344 q 180 333 180 321 l 180 86 q 180 48 158 22 q 135 -5 103 -5 z"},"k":{"x_min":0,"x_max":447,"ha":447,"o":"m 1 733 q 1 766 30 784 q 59 803 96 800 q 128 800 152 778 q 175 755 175 722 l 175 528 q 175 510 178 498 q 182 486 194 480 q 206 475 215 475 q 223 475 230 479 l 344 547 q 350 550 357 550 q 363 550 370 544 q 376 539 376 530 q 376 517 367 512 l 260 447 q 242 436 239 415 q 238 407 239 399 q 240 391 249 375 l 407 104 q 414 91 414 77 q 414 46 388 22 q 361 -2 327 -2 q 287 -2 270 27 l 126 255 q 115 272 94 272 q 89 272 81 270 q 58 263 58 235 l 58 64 q 58 33 55 22 q 49 0 31 0 q 16 0 8 16 q 1 31 1 50 z"},"u":{"x_min":0,"x_max":477,"ha":477,"o":"m 432 170 q 432 94 367 45 q 306 -1 221 -1 q 133 -1 72 39 q 2 85 2 160 l 2 492 q 2 527 30 550 q 57 572 94 572 q 128 572 153 550 q 178 528 178 496 l 178 172 q 178 125 206 90 q 234 54 278 54 q 323 54 346 86 q 369 117 369 160 q 369 218 336 242 q 298 265 281 277 q 250 300 250 328 l 250 492 q 250 526 276 549 q 302 572 338 572 q 376 572 404 548 q 432 525 432 489 z"},"U":{"x_min":0,"x_max":455,"ha":455,"o":"m -1 713 q -1 746 22 768 q 46 791 79 791 q 113 791 139 768 q 165 745 165 713 l 165 149 q 165 107 196 76 q 227 45 268 45 q 281 45 287 47 q 322 55 342 84 q 361 114 361 153 l 361 757 q 361 773 362 777 q 367 797 383 797 q 398 797 404 778 q 407 768 407 757 l 407 143 q 407 89 373 48 q 339 8 285 -5 q 257 -12 221 -12 q 135 -12 71 28 q -1 73 -1 147 z"},"o":{"x_min":0,"x_max":484,"ha":484,"o":"m -4 422 q -4 488 59 526 q 115 560 194 560 q 288 560 349 531 q 426 494 426 422 l 426 130 q 426 67 365 32 q 315 3 235 -4 q 227 -5 220 -6 q 212 -6 201 -6 q 118 -6 62 26 q -4 64 -4 131 z m 180 123 q 180 90 208 70 q 236 51 274 51 q 285 51 290 52 q 326 57 350 77 q 373 97 373 130 l 373 426 q 373 462 344 484 q 316 507 277 507 q 238 507 209 484 q 180 462 180 426 z"},"N":{"x_min":0,"x_max":450,"ha":450,"o":"m -1 720 q -1 756 26 780 q 53 804 90 804 q 147 804 166 752 l 282 452 q 289 434 302 423 q 316 412 332 416 q 346 419 351 434 q 356 450 356 472 l 356 758 q 356 779 362 792 q 367 804 383 804 q 400 804 406 792 q 412 780 412 760 l 412 99 q 412 62 390 35 q 369 8 334 4 q 331 3 328 3 q 324 3 323 3 q 291 3 265 29 q 244 51 230 88 l 138 340 q 128 369 118 378 q 109 388 94 388 q 78 387 68 374 q 58 361 58 344 l 58 38 q 58 21 53 11 q 48 1 35 -1 q 21 -4 10 8 q -1 20 -1 35 z"},"G":{"x_min":0,"x_max":476,"ha":476,"o":"m -4 640 q -4 715 69 758 q 133 796 222 796 q 300 796 357 756 q 419 712 419 643 l 419 496 q 419 481 414 470 q 410 458 398 458 q 385 457 376 468 q 368 479 368 494 l 366 643 q 366 680 338 705 q 310 730 272 730 q 231 730 203 706 q 175 683 175 645 l 175 129 q 175 97 210 70 q 244 44 284 44 q 308 44 325 54 q 342 63 353 87 q 371 127 371 156 q 371 196 290 249 q 248 277 240 310 q 239 314 239 322 q 239 343 254 361 q 265 375 289 392 q 305 404 330 404 q 363 404 390 382 q 416 361 416 330 l 420 129 q 420 58 349 20 q 289 -12 201 -12 q 120 -12 65 15 q -2 48 -2 112 z"},"q":{"x_min":0,"x_max":484,"ha":484,"o":"m 1 142 l 1 408 q 1 480 79 519 q 143 551 231 551 q 308 551 363 513 q 424 471 424 403 l 424 -114 q 424 -145 400 -166 q 375 -186 342 -186 q 309 -186 283 -167 q 257 -148 257 -118 l 257 -33 q 257 -20 252 -12 q 246 -3 229 -3 l 181 -3 q 112 -3 61 38 q 31 63 18 83 q 1 109 1 142 z m 371 404 q 371 442 345 469 q 319 496 280 496 q 239 496 208 470 q 177 444 177 405 l 177 156 q 177 113 206 80 q 236 47 278 47 q 284 48 288 48 q 327 53 349 84 q 371 115 371 157 z"},"d":{"x_min":0,"x_max":470,"ha":470,"o":"m 70 532 q 92 545 115 550 q 138 554 168 554 l 232 554 q 235 554 238 556 q 241 559 242 560 q 248 566 248 586 l 248 733 q 248 764 278 784 q 308 803 343 803 q 374 803 397 786 q 420 768 420 739 l 420 150 q 420 80 361 35 q 306 -7 228 -7 q 139 -7 77 24 q -1 63 -1 135 l -1 423 q -1 460 18 487 q 34 510 70 532 z m 378 388 q 378 433 354 468 q 331 503 293 503 q 245 503 211 476 q 177 449 177 407 l 177 158 q 177 117 207 88 q 237 59 279 59 q 319 59 348 86 q 378 114 378 153 z"},"1":{"x_min":0,"x_max":330,"ha":330,"o":"m 8 680 l 198 771 q 215 780 222 784 q 236 791 245 791 q 253 791 262 786 q 270 781 272 772 q 275 764 275 748 q 275 737 275 732 l 275 79 q 275 46 252 22 q 228 -1 194 -1 q 160 -1 136 22 q 113 44 113 79 l 113 619 q 113 626 112 636 q 112 647 104 652 q 95 658 86 658 q 82 658 72 656 l 22 645 q 6 643 2 650 q -2 656 -2 662 q -2 675 8 680 z"},"5":{"x_min":0,"x_max":458,"ha":458,"o":"m 394 297 l 394 155 q 394 91 340 49 q 292 12 218 0 q 211 -1 197 -1 q 134 -1 70 43 q 5 87 5 138 q 5 156 14 172 q 22 187 42 202 q 63 217 86 217 q 108 217 126 205 q 143 193 148 173 q 161 130 191 95 q 227 53 264 53 q 284 53 300 62 q 316 72 334 96 q 356 125 356 155 q 356 216 241 289 q 141 349 41 410 q 36 416 29 419 q 12 428 9 434 q 6 440 6 447 q 6 456 8 461 q 17 476 21 484 l 168 746 q 173 757 179 768 q 185 780 194 787 q 202 794 213 797 q 224 800 235 800 l 340 800 q 377 800 404 778 q 430 755 430 720 q 430 683 409 655 q 388 627 355 627 l 189 627 q 172 627 157 618 q 142 608 141 607 q 134 600 134 591 l 134 553 q 134 546 144 539 l 158 529 q 183 511 266 462 q 326 427 356 397 q 377 376 386 353 q 394 330 394 297 z"}}}
